<?xml version="1.0" standalone="no"?>
<!DOCTYPE svg PUBLIC "-//W3C//DTD SVG 20010904//EN"
 "http://www.w3.org/TR/2001/REC-SVG-20010904/DTD/svg10.dtd">
<svg version="1.0" xmlns="http://www.w3.org/2000/svg"
 width="844.000000pt" height="1280.000000pt" viewBox="0 0 844.000000 1280.000000"
 preserveAspectRatio="xMidYMid meet">
<metadata>
Created by potrace 1.15, written by Peter Selinger 2001-2017
</metadata>
<g transform="translate(0.000000,1280.000000) scale(0.100000,-0.100000)"
fill="#000000" stroke="none">
<path d="M5767 12790 c-49 -13 -87 -33 -111 -59 -11 -12 -30 -21 -43 -21 -44
0 -120 -49 -146 -95 -9 -15 -13 -313 -17 -1120 -5 -1031 -6 -1102 -23 -1140
-26 -58 -54 -84 -123 -115 -73 -33 -94 -60 -94 -117 0 -36 -3 -43 -20 -43 -18
0 -20 7 -20 60 l0 60 -495 0 -495 0 0 -60 0 -60 -509 0 -509 0 -98 -102 c-204
-215 -482 -551 -680 -824 -919 -1265 -1488 -2648 -1669 -4059 -48 -373 -69
-993 -46 -1345 38 -573 186 -1084 445 -1535 l68 -118 -32 -81 c-69 -174 -127
-376 -190 -657 -12 -55 -30 -109 -43 -126 -48 -65 -187 -164 -284 -202 -18 -7
-166 -50 -330 -95 l-298 -82 -3 -427 -2 -427 300 0 301 0 68 55 67 54 3151 7
3150 7 85 -61 85 -62 501 0 502 0 5 23 c3 12 4 240 3 507 l-3 485 -800 3 -800
2 -560 559 c-362 362 -569 562 -586 566 -36 9 -73 -12 -136 -77 -60 -61 -74
-92 -61 -128 5 -14 111 -127 236 -252 l227 -228 -95 5 c-269 15 -830 35 -984
35 l-176 0 0 444 0 444 113 4 c96 3 120 7 172 31 133 62 225 164 265 294 31
99 25 234 -15 326 -7 16 2 17 109 17 l116 0 0 -75 0 -75 496 -2 496 -3 2 -85
1 -85 398 -3 397 -2 0 160 0 160 -112 2 c-110 2 -109 2 42 8 l155 5 0 120 0
120 -152 3 -153 3 0 39 0 40 210 0 210 0 0 130 0 130 -30 0 -30 0 0 60 0 60
-180 0 -180 0 0 125 0 125 280 0 280 0 0 88 0 89 153 6 c83 4 175 13 202 20
175 49 318 184 382 361 22 63 47 334 32 352 -10 12 -197 14 -1325 14 l-1314 0
0 25 0 25 1170 0 1170 0 0 75 0 75 -1090 0 -1090 0 -2 183 -3 182 -265 3 -265
2 -35 35 c-176 172 -480 21 -457 -226 10 -114 107 -227 208 -244 l39 -7 0 -64
0 -64 -1179 0 c-1006 0 -1180 -2 -1190 -14 -8 -9 -12 -61 -13 -148 0 -112 3
-143 22 -198 28 -81 40 -106 85 -164 l35 -46 -215 0 c-192 0 -221 2 -280 21
-125 41 -194 135 -203 275 -6 94 2 135 99 489 109 397 171 603 236 780 209
568 451 898 765 1044 173 81 67 75 1333 77 622 1 1119 -1 1105 -6 -14 -4 -58
-8 -97 -9 -72 -1 -73 -1 -73 -28 0 -40 40 -516 44 -529 3 -6 42 -17 88 -23
150 -21 138 -14 138 -82 0 -51 7 -73 50 -159 l50 -100 0 -295 c0 -248 2 -295
14 -295 8 0 28 -13 44 -30 17 -16 37 -30 45 -30 8 0 17 -9 20 -20 10 -39 64
-50 239 -50 182 0 234 9 250 45 6 13 21 26 34 29 13 4 31 17 40 31 9 14 23 25
30 25 12 0 14 49 14 286 l0 286 60 107 c59 105 60 110 60 184 0 42 4 78 9 81
4 3 16 -3 26 -14 27 -30 61 -25 212 30 140 51 173 72 173 114 0 18 11 26 58
43 l59 21 41 -51 c35 -44 54 -56 139 -92 l98 -42 248 -294 c137 -162 259 -307
272 -323 20 -25 26 -28 39 -17 11 9 20 10 29 3 19 -15 171 -9 193 8 55 43 271
227 281 240 7 8 12 31 11 50 -1 19 3 44 10 55 6 12 10 43 9 70 -2 50 -3 51
-252 348 l-250 298 -27 130 c-25 123 -29 133 -70 182 -25 29 -48 57 -52 64 -3
7 7 39 24 73 26 51 29 64 19 83 -31 56 -163 247 -172 247 -11 0 -817 -315
-850 -332 -16 -8 -17 57 -17 1359 0 900 -3 1380 -10 1404 -16 55 -45 86 -119
123 -124 64 -148 106 -162 289 -4 67 -9 549 -9 1070 0 935 0 948 -20 988 -25
48 -100 99 -145 99 -21 0 -40 9 -56 26 -47 51 -79 57 -279 60 -102 2 -202 -1
-223 -6z m1946 -5244 l68 -104 -42 -83 c-23 -46 -42 -85 -44 -87 -1 -1 -21 16
-44 39 -34 34 -41 48 -42 83 -2 64 -12 91 -37 94 -18 3 -58 -31 -183 -152
-139 -136 -184 -172 -339 -276 -99 -66 -184 -120 -189 -120 -5 0 -14 14 -20
31 -11 33 -16 33 -88 4 -30 -13 -32 -12 -41 13 -6 15 -13 35 -17 45 -7 16 4
17 136 17 l144 0 112 75 c182 123 364 308 430 438 18 37 34 53 66 67 23 10 47
19 52 19 6 0 41 -46 78 -103z m-273 -11 c-93 -135 -237 -272 -394 -376 l-90
-59 -83 0 -83 0 1 128 c0 70 3 120 7 111 6 -14 56 3 332 112 179 70 329 128
333 129 4 0 -6 -20 -23 -45z m116 -177 c-3 -34 -12 -70 -19 -80 -6 -10 -122
-110 -257 -223 -239 -200 -246 -205 -290 -205 -27 0 -56 8 -74 19 l-29 19 194
130 c169 114 211 148 329 266 74 74 139 135 144 135 5 1 6 -26 2 -61z m-1876
-363 c0 -68 -2 -75 -20 -75 -14 0 -22 -11 -30 -42 -6 -24 -17 -63 -24 -88 -16
-53 -2 -180 20 -193 9 -5 14 -25 14 -52 0 -40 -3 -45 -22 -45 -23 0 -210 29
-214 33 -1 1 -9 90 -18 197 -9 107 -18 212 -21 233 l-5 37 57 1 c74 0 125 18
138 47 8 19 17 22 67 22 l58 0 0 -75z m832 -7 c32 -74 34 -84 20 -95 -24 -19
-49 -16 -55 7 -3 12 -14 20 -26 20 -19 0 -21 6 -21 75 0 72 1 75 24 75 20 0
28 -13 58 -82z m349 -139 c35 -34 97 -59 148 -59 11 0 29 -13 40 -28 l19 -28
-81 -29 c-45 -17 -86 -30 -90 -30 -5 0 -31 59 -57 130 -27 72 -41 119 -32 105
9 -14 33 -41 53 -61z m-301 -201 c19 -46 33 -85 31 -88 -4 -6 -122 -50 -133
-50 -5 0 -8 20 -8 45 0 41 2 45 24 45 29 0 36 16 36 81 0 27 4 49 8 49 5 0 24
-37 42 -82z m-176 -13 c5 -13 -35 -15 -324 -15 -287 0 -330 2 -330 15 0 13 43
15 324 15 279 0 325 -2 330 -15z m-1372 -1086 c21 -11 38 -23 38 -27 0 -4 -29
-6 -64 -4 -109 6 -106 12 -106 -203 0 -142 -3 -185 -12 -185 -31 1 -97 41
-130 79 -87 101 -69 249 38 324 72 50 157 56 236 16z m-972 -1544 l0 -195 30
0 30 0 0 -215 0 -215 -115 0 -115 0 0 -90 0 -89 113 -3 112 -3 0 -645 0 -645
-112 -3 -113 -3 0 -89 0 -90 115 0 115 0 0 -110 0 -110 -319 0 -319 0 -29 48
c-174 287 -253 875 -253 1892 0 261 3 539 7 618 l6 142 424 0 423 0 0 -195z
m208 158 c-59 -63 -86 -116 -104 -207 -14 -71 -20 -86 -36 -86 -17 0 -18 11
-18 165 l0 165 97 0 97 0 -36 -37z m632 -53 l0 -90 55 0 55 0 0 -185 0 -185
-255 0 -255 0 0 105 0 105 -151 0 -151 0 6 28 c3 15 10 52 16 84 13 67 55 134
118 188 l47 40 258 0 257 0 0 -90z m585 -99 l-40 -6 -3 -62 -3 -63 -34 0 -35
0 0 70 0 70 78 -1 c59 -2 68 -3 37 -8z m758 2 c-122 -2 -324 -2 -450 0 -125 1
-25 2 222 2 248 0 350 -1 228 -2z m-1233 -633 c0 -6 -42 -10 -105 -10 l-105 0
0 -41 c0 -38 -2 -41 -22 -34 -92 28 -148 37 -210 31 l-68 -6 0 35 0 35 255 0
c163 0 255 -4 255 -10z m1450 -30 l0 -40 -435 0 -435 0 0 30 0 30 -110 0 c-67
0 -110 4 -110 10 0 7 188 10 545 10 l545 0 0 -40z m-1712 -102 l52 -19 0 -84
0 -84 87 -3 87 -3 19 -50 c76 -205 -19 -433 -219 -527 -70 -33 -169 -47 -238
-34 l-36 7 0 144 c0 80 2 145 4 145 2 0 17 -7 32 -15 96 -50 214 26 214 136 0
40 -30 91 -71 121 -33 25 -103 27 -147 4 l-33 -17 3 148 3 148 45 5 c67 8 139
0 198 -22z m-87 -295 c36 -22 63 -76 54 -111 -23 -95 -127 -131 -191 -67 -20
20 -24 34 -24 84 0 54 3 62 31 85 36 31 87 34 130 9z m1479 -1878 l54 -55
-899 0 c-950 0 -973 1 -1121 47 l-59 18 580 7 c319 4 704 14 855 21 151 8 334
15 405 16 l131 1 54 -55z m-3560 -247 c119 -34 246 -139 307 -254 31 -59 78
-205 71 -225 -2 -5 -104 106 -227 247 -123 141 -215 254 -205 249 11 -4 35
-12 54 -17z"/>
</g>
</svg>
