<?xml version="1.0" encoding="iso-8859-1"?>
<!-- Generator: Adobe Illustrator 19.0.0, SVG Export Plug-In . SVG Version: 6.00 Build 0)  -->
<svg version="1.1" id="Layer_1" xmlns="http://www.w3.org/2000/svg" xmlns:xlink="http://www.w3.org/1999/xlink" x="0px" y="0px"
	 viewBox="0 0 512 512" style="enable-background:new 0 0 512 512;" xml:space="preserve">
<path style="fill:#27467A;" d="M444.484,146.286h-33.758l33.758,286.945l33.758-22.506V180.044
	C478.242,161.477,463.051,146.286,444.484,146.286z"/>
<path style="fill:#367596;" d="M410.725,146.286H67.516c-18.567,0-33.758,15.191-33.758,33.758v230.681l410.725,22.506V180.044
	C444.484,161.477,429.292,146.286,410.725,146.286z"/>
<path style="fill:#A7CBCF;" d="M478.242,433.231L444.484,512h33.758C496.809,512,512,496.809,512,478.242v-22.505L478.242,433.231z"
	/>
<path style="fill:#B7D9DD;" d="M478.242,478.242v-45.011L0,455.736v22.505C0,496.809,15.191,512,33.758,512h410.725
	C463.051,512,478.242,496.809,478.242,478.242z"/>
<path style="fill:#88ACB5;" d="M247.56,444.484v33.758c0,4.662,3.779,8.44,8.44,8.44c4.661,0,8.44-3.778,8.44-8.44v-33.758H247.56z"
	/>
<polygon style="fill:#B7D9DD;" points="478.242,410.725 444.484,410.725 428.179,433.231 478.242,455.736 512,455.736 "/>
<polygon style="fill:#D0FBFD;" points="33.758,410.725 0,455.736 478.242,455.736 444.484,410.725 "/>
<g>
	<circle style="fill:#FFFFFF;" cx="289.758" cy="320.703" r="8.44"/>
	<circle style="fill:#FFFFFF;" cx="222.242" cy="320.703" r="8.44"/>
	<circle style="fill:#FFFFFF;" cx="256" cy="320.703" r="8.44"/>
</g>
<path style="fill:#FFBE35;" d="M256,0l4.17,270.59l38.195-17.402l10.536-41.326c35.478-18.934,59.626-56.311,59.626-99.335
	C368.527,50.38,318.148,0,256,0z"/>
<path style="fill:#FFDB8A;" d="M272.403,222.604c35.63-10.782,62.366-55.966,62.366-110.077C334.769,50.38,299.503,0,256,0
	c-62.148,0-112.527,50.38-112.527,112.527c0,43.024,24.148,80.401,59.627,99.335l10.536,41.326l46.535,17.402L272.403,222.604z"/>
<path style="fill:#88ACB5;" d="M264.606,253.188l-25.485,33.758h33.758c9.284,0,18.755-7.36,21.049-16.356l4.437-17.402H264.606z"/>
<path style="fill:#A7CBCF;" d="M260.17,270.59l4.437-17.402h-50.97l4.437,17.402c2.293,8.995,11.766,16.356,21.049,16.356
	C248.407,286.946,257.877,279.586,260.17,270.59z"/>
<path style="fill:#FFFFFF;" d="M267.253,227.869h-22.505c-3.691,0-6.954-2.399-8.056-5.922l-28.132-90.022
	c-1.123-3.593,0.269-7.494,3.413-9.565c3.144-2.073,7.277-1.808,10.135,0.639l14.198,12.17l14.199-12.17
	c3.161-2.71,7.824-2.71,10.985,0l14.202,12.171l14.202-12.171c2.857-2.451,6.99-2.712,10.135-0.639
	c3.143,2.071,4.535,5.973,3.413,9.565l-28.132,90.022C274.207,225.47,270.944,227.869,267.253,227.869z M250.952,210.99h10.096
	l17.77-56.864c-2.847,1.137-6.18,0.658-8.62-1.431l-14.201-12.171l-14.2,12.171c-2.437,2.09-5.77,2.568-8.615,1.434L250.952,210.99z
	"/>
<path style="fill:#88ACB5;" d="M298.364,261.628h-84.729c-4.661,0-8.44-3.778-8.44-8.44s3.779-8.44,8.44-8.44h84.729
	c4.661,0,8.44,3.778,8.44,8.44S303.025,261.628,298.364,261.628z"/>
<g>
</g>
<g>
</g>
<g>
</g>
<g>
</g>
<g>
</g>
<g>
</g>
<g>
</g>
<g>
</g>
<g>
</g>
<g>
</g>
<g>
</g>
<g>
</g>
<g>
</g>
<g>
</g>
<g>
</g>
</svg>
